<?xml version="1.0" encoding="UTF-8"?>
<svg version="1.1" xmlns="http://www.w3.org/2000/svg" width="600" height="598">
<path d="M0 0 C1.76193131 -0.0037403 3.52386096 -0.00834333 5.285788 -0.01373065 C10.11026682 -0.02592939 14.93467613 -0.02570386 19.75916684 -0.02334189 C24.96932799 -0.02293293 30.1794671 -0.03398054 35.38961792 -0.04345703 C45.59151849 -0.06005141 55.79339594 -0.06556589 65.99530888 -0.06668179 C74.29155303 -0.06763311 82.58778956 -0.0717476 90.8840313 -0.07808304 C114.42329956 -0.09569204 137.96254961 -0.10492257 161.50182451 -0.10342209 C163.40429517 -0.10330222 163.40429517 -0.10330222 165.34519958 -0.10317993 C166.61506841 -0.10309817 167.88493724 -0.10301641 169.19328695 -0.10293217 C189.76415179 -0.10211961 210.33494335 -0.12125059 230.905787 -0.14945666 C252.04533287 -0.17821295 273.18484303 -0.19199541 294.32440895 -0.19026911 C306.18553795 -0.18960611 318.04659015 -0.19505903 329.90770149 -0.21662521 C340.00836641 -0.23487323 350.10891972 -0.23915471 360.20959402 -0.22560637 C365.35805016 -0.21909471 370.5062924 -0.21889414 375.65472794 -0.23631287 C380.37824489 -0.25212882 385.10137986 -0.24909366 389.82488798 -0.2317446 C391.52340156 -0.22869334 393.22194426 -0.23223544 394.92042346 -0.24346475 C422.04092849 -0.41073141 447.3947754 8.88849823 467.21141052 27.66879272 C485.53044042 45.78341415 496.76344231 70.52440889 496.93534861 96.31888231 C496.94031877 98.72202399 496.93560877 101.12504255 496.93074036 103.52818298 C496.9344807 105.2818647 496.93908374 107.03554475 496.944471 108.78922218 C496.95666921 113.59089794 496.95644428 118.39250387 496.95408225 123.19419158 C496.95367327 128.37981267 496.96472103 133.56541162 496.97419739 138.75102234 C496.99079148 148.90479599 496.99630624 159.05854642 496.99742214 169.21233249 C496.99837348 177.46948435 497.00248804 185.72662856 497.00882339 193.983778 C497.02643232 217.41237123 497.03566294 240.84094615 497.03416245 264.26954604 C497.03404258 266.16305572 497.03404258 266.16305572 497.03392029 268.09481812 C497.03383853 269.35870572 497.03375677 270.62259332 497.03367253 271.92478054 C497.03285997 292.39864763 497.05199087 312.8724411 497.08019702 333.3462869 C497.1089537 354.3863917 497.12273575 375.42646063 497.12100947 396.46658558 C497.12034648 408.27182337 497.12579882 420.076984 497.14736557 431.88220406 C497.16561411 441.93529199 497.16989464 451.98826779 497.15634672 462.04136515 C497.14983532 467.16551846 497.14963355 472.28945687 497.16705322 477.41358948 C497.18287034 482.11490196 497.17983286 486.81583068 497.16248496 491.5171343 C497.15943394 493.20757257 497.16297482 494.89804011 497.17420511 496.58844382 C497.34210846 523.68063363 488.01907517 549.02333149 469.26194763 568.81552124 C455.6413979 582.58976757 439.16783923 591.22496784 420.66331482 596.26742554 C420.00007062 596.44822588 419.33682643 596.62902622 418.65348393 596.81530535 C410.28469704 598.77837731 401.86467907 598.55206504 393.32662964 598.53485107 C391.56469833 598.53859137 389.80276868 598.5431944 388.04084164 598.54858172 C383.21636282 598.56078046 378.39195351 598.56055494 373.5674628 598.55819297 C368.35730165 598.557784 363.14716254 598.56883162 357.93701172 598.57830811 C347.73511115 598.59490248 337.53323369 598.60041697 327.33132076 598.60153286 C319.03507661 598.60248418 310.73884008 598.60659867 302.44259834 598.61293411 C278.90333008 598.63054311 255.36408003 598.63977364 231.82480513 598.63827316 C229.92233447 598.6381533 229.92233447 598.6381533 227.98143005 598.63803101 C226.71156122 598.63794924 225.44169239 598.63786748 224.13334269 598.63778324 C203.56247785 598.63697069 182.99168629 598.65610166 162.42084264 598.68430774 C141.28129677 598.71306403 120.14178661 598.72684649 99.00222069 598.72512019 C87.14109169 598.72445718 75.28003949 598.72991011 63.41892815 598.75147629 C53.31826323 598.7697243 43.21770992 598.77400578 33.11703562 598.76045744 C27.96857948 598.75394578 22.82033724 598.75374521 17.6719017 598.77116394 C12.94838475 598.78697989 8.22524977 598.78394474 3.50174166 598.76659568 C1.80322808 598.76354441 0.10468538 598.76708651 -1.59379382 598.77831583 C-28.71429885 598.94558248 -54.06814576 589.64635285 -73.88478088 570.86605835 C-92.20381078 552.75143693 -103.43681267 528.01044219 -103.60871897 502.21596876 C-103.61368913 499.81282708 -103.60897914 497.40980852 -103.60411072 495.00666809 C-103.60785106 493.25298637 -103.6124541 491.49930632 -103.61784136 489.74562889 C-103.63003957 484.94395313 -103.62981464 480.14234721 -103.62745261 475.3406595 C-103.62704363 470.1550384 -103.63809139 464.96943945 -103.64756775 459.78382874 C-103.66416184 449.63005508 -103.6696766 439.47630466 -103.67079251 429.32251858 C-103.67174384 421.06536672 -103.6758584 412.80822251 -103.68219376 404.55107307 C-103.69980268 381.12247985 -103.7090333 357.69390493 -103.70753281 334.26530503 C-103.7074529 333.00296525 -103.70737298 331.74062546 -103.70729065 330.44003296 C-103.70720889 329.17614536 -103.70712713 327.91225776 -103.70704289 326.61007053 C-103.70623033 306.13620344 -103.72536123 285.66240998 -103.75356738 265.18856417 C-103.78232406 244.14845937 -103.79610611 223.10839044 -103.79437983 202.0682655 C-103.79371684 190.2630277 -103.79916918 178.45786707 -103.82073593 166.65264702 C-103.83898447 156.59955908 -103.843265 146.54658328 -103.82971708 136.49348592 C-103.82320568 131.36933261 -103.82300391 126.24539421 -103.84042358 121.1212616 C-103.8562407 116.41994911 -103.85320322 111.71902039 -103.83585532 107.01771677 C-103.83280431 105.3272785 -103.83634518 103.63681097 -103.84757547 101.94640725 C-104.01547882 74.85421745 -94.69244553 49.51151959 -75.93531799 29.71932983 C-62.31476826 15.9450835 -45.84120959 7.30988323 -27.33668518 2.26742554 C-26.67344099 2.0866252 -26.01019679 1.90582486 -25.32685429 1.71954572 C-16.9580674 -0.24352624 -8.53804943 -0.01721397 0 0 Z " fill="#FCFCFC" transform="translate(103.33668518066406,-0.267425537109375)"/>
<path d="M0 0 C16.1174648 -0.07043686 32.23487881 -0.12315648 48.35246086 -0.15543652 C55.83805395 -0.17083067 63.32355078 -0.1917754 70.80908203 -0.22631836 C77.34214034 -0.25645134 83.87512886 -0.27562896 90.40825474 -0.28226548 C93.85964877 -0.28613782 97.31084334 -0.29507744 100.7621727 -0.31719017 C138.55132459 -0.53229376 138.55132459 -0.53229376 148 5 C148 5.66 148 6.32 148 7 C149.11375 7.226875 150.2275 7.45375 151.375 7.6875 C156.64182339 8.98060897 161.2454811 11.44736895 166 14 C166 14.66 166 15.32 166 16 C166.680625 16.2475 167.36125 16.495 168.0625 16.75 C174.75166988 19.59645527 178.52719964 22.23244165 183 28 C185.5477059 30.61139855 188.14529772 33.1356112 190.8125 35.625 C193 38 193 38 193 41 C193.66 41 194.32 41 195 41 C195.99 43.97 195.99 43.97 197 47 C197.66 47 198.32 47 199 47 C199.99 49.97 199.99 49.97 201 53 C201.66 53 202.32 53 203 53 C207.75138092 61.82399313 211.78324302 70.81784072 211 81 C211.66 81 212.32 81 213 81 C213.80395025 85.22282518 214.11811363 89.19613764 214.09765625 93.4921875 C214.09443359 94.69101563 214.09121094 95.88984375 214.08789062 97.125 C214.07951172 98.3625 214.07113281 99.6 214.0625 100.875 C214.05798828 102.13570313 214.05347656 103.39640625 214.04882812 104.6953125 C214.0370796 107.79692386 214.02065167 110.89843725 214 114 C214.9895166 113.99476318 215.9790332 113.98952637 216.99853516 113.98413086 C239.75379658 113.87581654 262.49791804 114.03455903 285.25 114.4375 C287.03727509 114.4669722 287.03727509 114.4669722 288.86065674 114.49703979 C292.26659333 114.55420808 295.67234574 114.6177779 299.078125 114.68359375 C300.0951651 114.70031128 301.1122052 114.71702881 302.1600647 114.73425293 C306.87031544 114.83348257 311.36766871 115.04005524 316 116 C316 116.66 316 117.32 316 118 C317.2065625 118.0928125 317.2065625 118.0928125 318.4375 118.1875 C325.44211126 119.78504292 331.39429586 123.50286925 336 129 C336 129.66 336 130.32 336 131 C336.61875 131.144375 337.2375 131.28875 337.875 131.4375 C340 132 340 132 342 133 C343.11330681 135.01786859 344.0420387 137.09195966 345 139.1875 C345.87144569 141.17201523 345.87144569 141.17201523 348 142 C350.79421304 152.22301927 350.27250874 163.1459646 350.22705078 173.6418457 C350.22648551 175.48610427 350.22680549 177.33036328 350.22793579 179.17462158 C350.22850576 184.14274178 350.21680944 189.11076391 350.20278788 194.07886147 C350.19022084 199.28516905 350.18910533 204.49147928 350.18673706 209.69779968 C350.18053976 219.53948556 350.16415278 229.3811266 350.14403808 239.2227928 C350.12162441 250.43448289 350.11067194 261.6461752 350.10064721 272.85788214 C350.07978488 295.90527954 350.04464317 318.95263725 350 342 C325.48622414 342.14044153 300.97250899 342.24610385 276.45841122 342.31087303 C265.07492017 342.34175189 253.69167975 342.38381797 242.30834961 342.45263672 C232.38142758 342.5126218 222.45468715 342.55119249 212.5275889 342.56453097 C207.27588916 342.57232244 202.02470875 342.59050873 196.77317619 342.63438034 C191.81955591 342.67542379 186.86666367 342.68760554 181.91288948 342.67864609 C180.10502273 342.68028265 178.29712896 342.69202727 176.4894104 342.71523285 C162.29603623 342.8883341 150.41741014 341.09588953 139.3125 331.375 C137.85324895 329.93843161 136.41389849 328.48122699 135 327 C134.30777344 326.34773438 133.61554688 325.69546875 132.90234375 325.0234375 C128.64577055 320.495912 125.67633167 314.65160233 125.6875 308.375 C125.790625 307.26125 125.89375 306.1475 126 305 C125.01 305 124.02 305 123 305 C123 278.93 123 252.86 123 226 C109.47 226 95.94 226 82 226 C82 225.34 82 224.68 82 224 C79.36 224 76.72 224 74 224 C74 223.34 74 222.68 74 222 C72.9275 221.9175 71.855 221.835 70.75 221.75 C60.14404754 220.398445 50.7970024 215.86466827 42 210 C42 209.34 42 208.68 42 208 C41.34 207.814375 40.68 207.62875 40 207.4375 C32.86326568 204.0178148 27.71524091 197.75695645 22.6640625 191.8203125 C21.11620121 189.90876334 21.11620121 189.90876334 19 189 C18.27306096 187.02111039 17.60183749 185.02045442 17 183 C16.34 183 15.68 183 15 183 C2.63571371 159.35180196 2.63571371 159.35180196 3 149 C2.34 149 1.68 149 1 149 C-0.14690189 141.7070915 -0.13407535 134.52008742 -0.11352539 127.1484375 C-0.11324291 125.75811261 -0.11340244 124.36778757 -0.1139679 122.97746277 C-0.11425349 119.22391075 -0.10839523 115.47039102 -0.10139394 111.71684647 C-0.09512079 107.7864117 -0.09455348 103.85597611 -0.09336853 99.92553711 C-0.09026686 92.4919849 -0.08206922 85.05844748 -0.07201904 77.62490177 C-0.06082167 69.15813211 -0.05533834 60.69136172 -0.05032361 52.22458649 C-0.03988559 34.81638245 -0.02230878 17.40819279 0 0 Z " fill="#033325" transform="translate(127,116)"/>
<path d="M0 0 C0.33 0 0.66 0 1 0 C1.80395025 4.22282518 2.11811363 8.19613764 2.09765625 12.4921875 C2.09443359 13.69101563 2.09121094 14.88984375 2.08789062 16.125 C2.07951172 17.3625 2.07113281 18.6 2.0625 19.875 C2.05798828 21.13570312 2.05347656 22.39640625 2.04882812 23.6953125 C2.0370796 26.79692386 2.02065167 29.89843725 2 33 C2.9895166 32.99476318 3.9790332 32.98952637 4.99853516 32.98413086 C27.75379658 32.87581654 50.49791804 33.03455903 73.25 33.4375 C74.44151672 33.45714813 75.63303345 33.47679626 76.86065674 33.49703979 C80.26659333 33.55420808 83.67234574 33.6177779 87.078125 33.68359375 C88.60368515 33.70867004 88.60368515 33.70867004 90.1600647 33.73425293 C94.87031544 33.83348257 99.36766871 34.04005524 104 35 C104 35.66 104 36.32 104 37 C105.2065625 37.0928125 105.2065625 37.0928125 106.4375 37.1875 C113.44211126 38.78504292 119.39429586 42.50286925 124 48 C124 48.66 124 49.32 124 50 C124.61875 50.144375 125.2375 50.28875 125.875 50.4375 C128 51 128 51 130 52 C131.11330681 54.01786859 132.0420387 56.09195966 133 58.1875 C133.87144569 60.17201523 133.87144569 60.17201523 136 61 C138.79421304 71.22301927 138.27250874 82.1459646 138.22705078 92.6418457 C138.22648551 94.48610427 138.22680549 96.33036328 138.22793579 98.17462158 C138.22850576 103.14274178 138.21680944 108.11076391 138.20278788 113.07886147 C138.19022084 118.28516905 138.18910533 123.49147928 138.18673706 128.69779968 C138.18053976 138.53948556 138.16415278 148.3811266 138.14403808 158.2227928 C138.12162441 169.43448289 138.11067194 180.6461752 138.10064721 191.85788214 C138.07978488 214.90527954 138.04464317 237.95263725 138 261 C113.48622414 261.14044153 88.97250899 261.24610385 64.45841122 261.31087303 C53.07492017 261.34175189 41.69167975 261.38381797 30.30834961 261.45263672 C20.38142758 261.5126218 10.45468715 261.55119249 0.5275889 261.56453097 C-4.72411084 261.57232244 -9.97529125 261.59050873 -15.22682381 261.63438034 C-20.18044409 261.67542379 -25.13333633 261.68760554 -30.08711052 261.67864609 C-31.89497727 261.68028265 -33.70287104 261.69202727 -35.5105896 261.71523285 C-49.70396377 261.8883341 -61.58258986 260.09588953 -72.6875 250.375 C-74.14675105 248.93843161 -75.58610151 247.48122699 -77 246 C-77.69222656 245.34773437 -78.38445312 244.69546875 -79.09765625 244.0234375 C-83.35422945 239.495912 -86.32366833 233.65160233 -86.3125 227.375 C-86.209375 226.26125 -86.10625 225.1475 -86 224 C-86.99 224 -87.98 224 -89 224 C-89 197.93 -89 171.86 -89 145 C-102.53 145 -116.06 145 -130 145 C-130 144.67 -130 144.34 -130 144 C-86.44 144 -42.88 144 2 144 C1.855625 126.55125 1.71125 109.1025 1.5625 91.125 C1.51939697 85.6917627 1.47629395 80.25852539 1.43188477 74.66064453 C1.22192709 49.7629714 0.93111742 24.88248871 0 0 Z " fill="#1DB646" transform="translate(339,197)"/>
<path d="M0 0 C0.99 0.495 0.99 0.495 2 1 C2.80590326 18.54356967 3.13838592 36.04092774 3.09765625 53.6015625 C3.09578388 56.03062917 3.09436387 58.45969624 3.09336853 60.88876343 C3.08960769 67.18488669 3.07983501 73.48098572 3.06866455 79.77709961 C3.05647875 87.38345336 3.05201747 94.98981536 3.04621124 102.59617615 C3.03661767 114.06413413 3.01741675 125.53203926 3 137 C-27.36 137 -57.72 137 -89 137 C-89 136.34 -89 135.68 -89 135 C-103.52 135 -118.04 135 -133 135 C-132.505 134.01 -132.505 134.01 -132 133 C-109.725 133.495 -109.725 133.495 -87 134 C-87.33 132.68 -87.66 131.36 -88 130 C-89.28311907 118.19048102 -89.0553061 106.36095871 -88.87890625 94.50390625 C-88.85454011 92.57478978 -88.8307001 90.6456666 -88.80735779 88.71653748 C-88.74516163 83.69099151 -88.67591999 78.6655676 -88.60510254 73.64013672 C-88.53382871 68.49126645 -88.4693678 63.34231111 -88.40429688 58.19335938 C-88.27611833 48.1288127 -88.14048053 38.06438196 -88 28 C-84.37021224 26.79007075 -81.04959217 26.86029727 -77.27148438 26.87060547 C-76.48582596 26.86885315 -75.70016754 26.86710083 -74.89070129 26.86529541 C-72.29169511 26.86089142 -69.69275689 26.86380979 -67.09375 26.8671875 C-65.28918444 26.86651404 -63.48461896 26.86554367 -61.68005371 26.86428833 C-57.89720801 26.86281333 -54.11438592 26.8649596 -50.33154297 26.86962891 C-45.47908398 26.87532607 -40.62668029 26.87204602 -35.77422333 26.86605644 C-32.04766421 26.86244552 -28.32111823 26.86359187 -24.59455872 26.86618423 C-22.80516046 26.86685203 -21.01576101 26.86603021 -19.22636414 26.86370468 C-16.72704907 26.86116949 -14.22782398 26.86503105 -11.72851562 26.87060547 C-10.98660477 26.86858124 -10.24469391 26.86655701 -9.4803009 26.86447144 C-6.37772813 26.87731198 -3.96732818 27.01089061 -1 28 C-0.67 18.76 -0.34 9.52 0 0 Z " fill="#02201A" transform="translate(338,204)"/>
<path d="M0 0 C16.1174648 -0.07043686 32.23487881 -0.12315648 48.35246086 -0.15543652 C55.83805395 -0.17083067 63.32355078 -0.1917754 70.80908203 -0.22631836 C77.34214034 -0.25645134 83.87512886 -0.27562896 90.40825474 -0.28226548 C93.85964877 -0.28613782 97.31084334 -0.29507744 100.7621727 -0.31719017 C140.79496868 -0.54506504 140.79496868 -0.54506504 148 6 C142 5 142 5 139.42762756 4.49876404 C134.88362623 3.83755321 130.36820183 3.64186393 125.78295898 3.45727539 C124.77605483 3.41545419 123.76915068 3.37363298 122.73173428 3.33054447 C110.64849514 2.86301665 98.56348459 2.77042514 86.47265625 2.68359375 C84.29194839 2.66511792 82.11124358 2.6462779 79.93054199 2.6270752 C71.97456399 2.55950345 64.01852806 2.4988953 56.0625 2.4375 C38.221875 2.293125 20.38125 2.14875 2 2 C2 48.53 2 95.06 2 143 C2.66 143 3.32 143 4 143 C4 146.96 4 150.92 4 155 C3.67 155 3.34 155 3 155 C3 153.02 3 151.04 3 149 C2.34 149 1.68 149 1 149 C-0.14690189 141.7070915 -0.13407535 134.52008742 -0.11352539 127.1484375 C-0.11324291 125.75811261 -0.11340244 124.36778757 -0.1139679 122.97746277 C-0.11425349 119.22391075 -0.10839523 115.47039102 -0.10139394 111.71684647 C-0.09512079 107.7864117 -0.09455348 103.85597611 -0.09336853 99.92553711 C-0.09026686 92.4919849 -0.08206922 85.05844748 -0.07201904 77.62490177 C-0.06082167 69.15813211 -0.05533834 60.69136172 -0.05032361 52.22458649 C-0.03988559 34.81638245 -0.02230878 17.40819279 0 0 Z " fill="#7A8C86" transform="translate(127,116)"/>
<path d="M0 0 C1.44580015 0.00405951 2.89160099 0.00788273 4.33740234 0.01148987 C21.61094881 0.06618203 38.88397821 0.2543763 56.15625 0.4621582 C60.85103969 0.51840568 65.54587726 0.56812726 70.24075317 0.61656094 C73.89343395 0.65529608 77.54605326 0.6984054 81.19866943 0.7427845 C82.93388049 0.76313372 84.66911139 0.78185875 86.40435791 0.79891777 C88.79309178 0.82282664 91.18167059 0.85286315 93.5703125 0.88452148 C94.2816333 0.89027695 94.9929541 0.89603241 95.72583008 0.90196228 C100.57334148 0.97568523 100.57334148 0.97568523 101.6875 2.08984375 C106.95954906 2.46641719 106.95954906 2.46641719 111.93359375 1.08984375 C115.62774949 -0.25158018 119.12531821 -0.16518251 123 -0.09765625 C124.17574585 -0.08472534 124.17574585 -0.08472534 125.37524414 -0.0715332 C127.81338858 -0.03502597 130.25000251 0.02325081 132.6875 0.08984375 C133.46383789 0.10917969 134.24017578 0.12851562 135.04003906 0.1484375 C137.23644222 0.21240127 139.43001535 0.30135767 141.625 0.40234375 C142.91277344 0.46035156 144.20054687 0.51835937 145.52734375 0.578125 C148.6875 1.08984375 148.6875 1.08984375 151.6875 4.08984375 C96.2475 4.08984375 40.8075 4.08984375 -16.3125 4.08984375 C-16.3125 3.42984375 -16.3125 2.76984375 -16.3125 2.08984375 C-18.2925 2.08984375 -20.2725 2.08984375 -22.3125 2.08984375 C-22.3125 1.75984375 -22.3125 1.42984375 -22.3125 1.08984375 C-14.87703095 -0.09386889 -7.51318788 -0.03903302 0 0 Z " fill="#10B43F" transform="translate(305.3125,452.91015625)"/>
<path d="M0 0 C0.33 0 0.66 0 1 0 C1 61.71 1 123.42 1 187 C-46.40532447 187.08060607 -46.40532447 187.08060607 -66.24609375 187.09765625 C-79.95427952 187.10953086 -93.66244072 187.1235026 -107.37060547 187.15087891 C-117.35347301 187.170806 -127.33632067 187.18371484 -137.31920755 187.18817699 C-142.60562819 187.19078551 -147.89199191 187.19692133 -153.17839432 187.21146011 C-158.1539773 187.22503323 -163.12947991 187.22922317 -168.10507965 187.22621536 C-169.93120383 187.22676564 -171.7573307 187.23074468 -173.58343887 187.23841095 C-176.07750395 187.24836794 -178.57126597 187.24596612 -181.06533813 187.24050903 C-181.78714126 187.24633472 -182.50894439 187.2521604 -183.25262034 187.25816262 C-187.53950912 187.23282717 -191.01255624 186.56844013 -195 185 C-195 184.67 -195 184.34 -195 184 C-192.36 184 -189.72 184 -187 184 C-187 184.66 -187 185.32 -187 186 C-125.29 186 -63.58 186 0 186 C0 124.62 0 63.24 0 0 Z " fill="#7DD096" transform="translate(476,271)"/>
<path d="M0 0 C6.6 0.66 13.2 1.32 20 2 C20 2.33 20 2.66 20 3 C14.06 3 8.12 3 2 3 C2 47.88 2 92.76 2 139 C1.34 139 0.68 139 0 139 C0 93.13 0 47.26 0 0 Z " fill="#001E13" transform="translate(129,118)"/>
<path d="M0 0 C0.33 0 0.66 0 1 0 C1 38.94 1 77.88 1 118 C1.66 118 2.32 118 3 118 C3 121.96 3 125.92 3 130 C2.67 130 2.34 130 2 130 C2 128.02 2 126.04 2 124 C1.34 124 0.68 124 0 124 C0 83.08 0 42.16 0 0 Z " fill="#37554C" transform="translate(128,141)"/>
<path d="M0 0 C0.96365479 0.00193359 1.92730957 0.00386719 2.92016602 0.00585938 C19.88718377 0.09846989 36.85267253 0.65420671 53.8125 1.125 C53.8125 1.455 53.8125 1.785 53.8125 2.125 C31.80963468 2.74470617 9.82645538 3.32440177 -12.1875 3.125 C-12.1875 2.465 -12.1875 1.805 -12.1875 1.125 C-8.13135869 -0.2270471 -4.22994877 -0.02085002 0 0 Z " fill="#011212" transform="translate(275.1875,336.875)"/>
<path d="M0 0 C0 0.33 0 0.66 0 1 C14.19 1.33 28.38 1.66 43 2 C43 2.66 43 3.32 43 4 C37.44987305 4.02484561 31.89977898 4.04292868 26.34960938 4.05493164 C24.46418697 4.05993919 22.5787684 4.06674715 20.69335938 4.07543945 C17.97264656 4.08766253 15.2519854 4.09326424 12.53125 4.09765625 C11.28075867 4.10539818 11.28075867 4.10539818 10.00500488 4.11329651 C4.91292184 4.11377714 0.04062523 3.73129553 -5 3 C-5 2.34 -5 1.68 -5 1 C-6.32 0.67 -7.64 0.34 -9 0 C-3.375 -1.125 -3.375 -1.125 0 0 Z " fill="#173D32" transform="translate(206,337)"/>
<path d="M0 0 C0.33 0 0.66 0 1 0 C1 26.07 1 52.14 1 79 C1.99 79 2.98 79 4 79 C4 81.64 4 84.28 4 87 C3.34 86.34 2.68 85.68 2 85 C2 83.68 2 82.36 2 81 C1.34 81 0.68 81 0 81 C0 54.27 0 27.54 0 0 Z " fill="#90DFA5" transform="translate(249,342)"/>
<path d="M0 0 C4.81751498 3.61313623 7.19819653 6.68623479 10 12 C10.97201131 13.35387289 11.95884159 14.69855198 13 16 C12.34 16.99 11.68 17.98 11 19 C10.38125 18.195625 9.7625 17.39125 9.125 16.5625 C7.25835959 13.96125481 7.25835959 13.96125481 5 13 C4.27306096 11.02111039 3.60183749 9.02045442 3 7 C2.34 7 1.68 7 1 7 C0.67 4.69 0.34 2.38 0 0 Z " fill="#132E26" transform="translate(141,292)"/>
<path d="M0 0 C0.33 0 0.66 0 1 0 C1 7.59 1 15.18 1 23 C1.66 23 2.32 23 3 23 C3 26.96 3 30.92 3 35 C2.67 35 2.34 35 2 35 C2 33.02 2 31.04 2 29 C1.34 29 0.68 29 0 29 C0 19.43 0 9.86 0 0 Z " fill="#446057" transform="translate(128,236)"/>
<path d="M0 0 C0.99 0.33 1.98 0.66 3 1 C3.6875 3.0625 3.6875 3.0625 4 5 C4.66 5 5.32 5 6 5 C6.33 7.31 6.66 9.62 7 12 C6.34 12 5.68 12 5 12 C4.15885829 10.56705502 3.32734313 9.12845595 2.5 7.6875 C1.80390625 6.48673828 1.80390625 6.48673828 1.09375 5.26171875 C0 3 0 3 0 0 Z " fill="#0B281E" transform="translate(320,158)"/>
<path d="M0 0 C2.97 0.495 2.97 0.495 6 1 C6 2.32 6 3.64 6 5 C7.32 5.33 8.64 5.66 10 6 C9.01 6.495 9.01 6.495 8 7 C3 4.54385965 3 4.54385965 1 3 C0.67 2.01 0.34 1.02 0 0 Z " fill="#2BBD53" transform="translate(267,446)"/>
<path d="M0 0 C0.99 0.33 1.98 0.66 3 1 C3.6875 3.0625 3.6875 3.0625 4 5 C4.66 5 5.32 5 6 5 C6 6.65 6 8.3 6 10 C5.34 10 4.68 10 4 10 C3.32845067 8.71086513 2.66291141 7.41859796 2 6.125 C1.62875 5.40570313 1.2575 4.68640625 0.875 3.9453125 C0 2 0 2 0 0 Z " fill="#0FB438" transform="translate(465,250)"/>
<path d="M0 0 C3.4375 1.3125 3.4375 1.3125 7 3 C7.33 3.99 7.66 4.98 8 6 C3.50347222 6.36458333 3.50347222 6.36458333 1.1875 4.6875 C0 3 0 3 0 0 Z " fill="#1F3B32" transform="translate(298,135)"/>
<path d="M0 0 C1.6875 1.5625 1.6875 1.5625 3 3 C0.36 3 -2.28 3 -5 3 C-5 2.34 -5 1.68 -5 1 C-6.32 0.67 -7.64 0.34 -9 0 C-3.375 -1.125 -3.375 -1.125 0 0 Z " fill="#2A4D43" transform="translate(206,337)"/>
<path d="M0 0 C5.75 1.625 5.75 1.625 8 5 C7.01 6.485 7.01 6.485 6 8 C5.38125 7.195625 4.7625 6.39125 4.125 5.5625 C2.25835959 2.96125481 2.25835959 2.96125481 0 2 C0 1.34 0 0.68 0 0 Z " fill="#223D35" transform="translate(146,303)"/>
<path d="M0 0 C2.97 0.99 5.94 1.98 9 3 C8.67 3.66 8.34 4.32 8 5 C5.36 4.67 2.72 4.34 0 4 C0 2.68 0 1.36 0 0 Z " fill="#1D3E33" transform="translate(276,123)"/>
<path d="M0 0 C3.02419525 0.58803797 6.01758453 1.22678118 9 2 C9 2.66 9 3.32 9 4 C7.02 4 5.04 4 3 4 C3 3.34 3 2.68 3 2 C2.01 2 1.02 2 0 2 C0 1.34 0 0.68 0 0 Z " fill="#021E14" transform="translate(180,329)"/>
<path d="M0 0 C2 1.3125 2 1.3125 4 3 C4 3.99 4 4.98 4 6 C4.66 6 5.32 6 6 6 C5 8 5 8 3 9 C0 2.25 0 2.25 0 0 Z " fill="#23493F" transform="translate(316,151)"/>
<path d="M0 0 C2.375 0.25 2.375 0.25 5 1 C6.3125 3.0625 6.3125 3.0625 7 5 C6.01 5 5.02 5 4 5 C1.8125 2.5 1.8125 2.5 0 0 Z " fill="#1D3931" transform="translate(153,311)"/>
<path d="M0 0 C2.97 0.33 5.94 0.66 9 1 C9 1.66 9 2.32 9 3 C5.625 3.1875 5.625 3.1875 2 3 C1.34 2.01 0.68 1.02 0 0 Z " fill="#243F36" transform="translate(171,326)"/>
</svg>
